font.ufo
<glyph name="parenright" format="1">
  <advance width="640"/>
  <unicode hex="0029"/>
  <outline>
    <contour>
      <point x="80.4951" y="-205" type="line"/>
      <point x="249.451" y="64.3213"/>
      <point x="337.265" y="368.999"/>
      <point x="337.265" y="676.448" type="curve" smooth="yes"/>
      <point x="337.265" y="978.599"/>
      <point x="252.452" y="1283.42"/>
      <point x="76.4951" y="1560" type="curve"/>
      <point x="223.495" y="1560" type="line"/>
      <point x="412.227" y="1263.71"/>
      <point x="504" y="965.924"/>
      <point x="504" y="671.347" type="curve" smooth="yes"/>
      <point x="504" y="374.371"/>
      <point x="410.727" y="80.6533"/>
      <point x="229.495" y="-205" type="curve"/>
    </contour>
  </outline>
</glyph>
<glyph name="slash" format="1">
  <advance width="952"/>
  <unicode hex="002F"/>
  <outline>
    <contour>
      <point x="80" y="0" type="line"/>
      <point x="705" y="1560" type="line"/>
      <point x="872" y="1560" type="line"/>
      <point x="243" y="0" type="line"/>
    </contour>
  </outline>
</glyph>
<glyph name="three" format="1">
  <advance width="1316"/>
  <unicode hex="0033"/>
  <outline>
    <contour>
      <point x="658" y="-24" type="curve" smooth="yes"/>
      <point x="515" y="-24"/>
      <point x="350" y="16"/>
      <point x="235" y="85" type="curve"/>
      <point x="288" y="225" type="line"/>
      <point x="413" y="159"/>
      <point x="538" y="125"/>
      <point x="646" y="125" type="curve" smooth="yes"/>
      <point x="850" y="125"/>
      <point x="956.033" y="252.587"/>
      <point x="950" y="446" type="curve" smooth="yes"/>
      <point x="943.964" y="639.491"/>
      <point x="805" y="736"/>
      <point x="566" y="736" type="curve" smooth="yes"/>
      <point x="488" y="736" type="line"/>
      <point x="488" y="884" type="line"/>
      <point x="552" y="884" type="line" smooth="yes"/>
      <point x="778" y="884"/>
      <point x="901" y="990"/>
      <point x="901" y="1179" type="curve" smooth="yes"/>
      <point x="901" y="1344.82"/>
      <point x="786.13" y="1435"/>
      <point x="630" y="1435" type="curve" smooth="yes"/>
      <point x="487" y="1435"/>
      <point x="380" y="1391"/>
      <point x="281" y="1291" type="curve"/>
      <point x="185" y="1400" type="line"/>
      <point x="288" y="1523"/>
      <point x="464" y="1586"/>
      <point x="626" y="1586" type="curve" smooth="yes"/>
      <point x="857.506" y="1586"/>
      <point x="1066" y="1446.22"/>
      <point x="1066" y="1185" type="curve" smooth="yes"/>
      <point x="1066" y="1022"/>
      <point x="980" y="867"/>
      <point x="818" y="819" type="curve"/>
      <point x="1008" y="780"/>
      <point x="1120" y="623"/>
      <point x="1120" y="434" type="curve" smooth="yes"/>
      <point x="1120" y="128"/>
      <point x="907" y="-24"/>
    </contour>
  </outline>
</glyph>
<glyph name="five" format="1">
  <advance width="1316"/>
  <unicode hex="0035"/>
  <outline>
    <contour>
      <point x="666" y="-24" type="curve" smooth="yes"/>
      <point x="505" y="-24"/>
      <point x="330" y="46"/>
      <point x="211" y="179" type="curve"/>
      <point x="302" y="295" type="line"/>
      <point x="410" y="171"/>
      <point x="545" y="123"/>
      <point x="664" y="123" type="curve" smooth="yes"/>
      <point x="866" y="123"/>
      <point x="983" y="271"/>
      <point x="983" y="472" type="curve" smooth="yes"/>
      <point x="983" y="637"/>
      <point x="889" y="796"/>
      <point x="713" y="796" type="curve" smooth="yes"/>
      <point x="589" y="796"/>
      <point x="491" y="734"/>
      <point x="450" y="672" type="curve"/>
      <point x="293" y="714" type="line"/>
      <point x="308" y="1560" type="line"/>
      <point x="1039" y="1560" type="line"/>
      <point x="1039" y="1410" type="line"/>
      <point x="461" y="1410" type="line"/>
      <point x="440" y="830" type="line"/>
      <point x="502" y="896"/>
      <point x="626" y="944"/>
      <point x="721" y="944" type="curve" smooth="yes"/>
      <point x="971" y="944"/>
      <point x="1145" y="740"/>
      <point x="1145" y="470" type="curve" smooth="yes"/>
      <point x="1145" y="198"/>
      <point x="974" y="-24"/>
    </contour>
  </outline>
</glyph>
<glyph name="semicolon" format="1">
  <advance width="617"/>
  <unicode hex="003B"/>
  <outline>
    <contour>
      <point x="146" y="-256" type="line"/>
      <point x="252" y="207" type="line"/>
      <point x="440" y="207" type="line"/>
      <point x="277" y="-256" type="line"/>
    </contour>
    <contour>
      <point x="335.027" y="1078.46" type="curve" smooth="yes"/>
      <point x="423.013" y="1078.46"/>
      <point x="467.056" y="1016.85"/>
      <point x="467.056" y="955.271" type="curve" smooth="yes"/>
      <point x="467.056" y="893.734"/>
      <point x="423.079" y="832.22"/>
      <point x="335.027" y="832.22" type="curve" smooth="yes"/>
      <point x="247.042" y="832.22"/>
      <point x="203" y="893.826"/>
      <point x="203" y="955.409" type="curve" smooth="yes"/>
      <point x="203" y="1016.95"/>
      <point x="246.976" y="1078.46"/>
    </contour>
  </outline>
</glyph>
<glyph name="less" format="1">
  <advance width="1161"/>
  <unicode hex="003C"/>
  <outline>
    <contour>
      <point x="1067" y="48" type="line"/>
      <point x="85" y="508" type="line"/>
      <point x="85" y="595" type="line"/>
      <point x="1071" y="1067" type="line"/>
      <point x="1071" y="914" type="line"/>
      <point x="304" y="552" type="line"/>
      <point x="1067" y="200" type="line"/>
    </contour>
  </outline>
</glyph>
<glyph name="B" format="1">
  <advance width="1360"/>
  <unicode hex="0042"/>
  <outline>
    <contour>
      <point x="372" y="881" type="line"/>
      <point x="562" y="881" type="line" smooth="yes"/>
      <point x="840" y="881"/>
      <point x="971" y="962"/>
      <point x="971" y="1154" type="curve" smooth="yes"/>
      <point x="971" y="1339"/>
      <point x="883" y="1422"/>
      <point x="596" y="1422" type="curve" smooth="yes"/>
      <point x="372" y="1422" type="line"/>
    </contour>
    <contour>
      <point x="372" y="138" type="line"/>
      <point x="637" y="138" type="line" smooth="yes"/>
      <point x="901" y="138"/>
      <point x="1036" y="229"/>
      <point x="1036" y="435" type="curve" smooth="yes"/>
      <point x="1036" y="645"/>
      <point x="897" y="736"/>
      <point x="592" y="736" type="curve" smooth="yes"/>
      <point x="372" y="736" type="line"/>
    </contour>
    <contour>
      <point x="198" y="0" type="line"/>
      <point x="198" y="1560" type="line"/>
      <point x="596" y="1560" type="line" smooth="yes"/>
      <point x="966" y="1560"/>
      <point x="1150" y="1454"/>
      <point x="1150" y="1184" type="curve" smooth="yes"/>
      <point x="1150" y="983"/>
      <point x="1059" y="882"/>
      <point x="897" y="824" type="curve"/>
      <point x="1098" y="782"/>
      <point x="1218" y="669"/>
      <point x="1218" y="432" type="curve" smooth="yes"/>
      <point x="1218" y="122"/>
      <point x="985" y="0"/>
      <point x="643" y="0" type="curve" smooth="yes"/>
    </contour>
  </outline>
</glyph>
<glyph name="E" format="1">
  <advance width="1192"/>
  <unicode hex="0045"/>
  <outline>
    <contour>
      <point x="198" y="0" type="line"/>
      <point x="198" y="1560" type="line"/>
      <point x="1045" y="1560" type="line"/>
      <point x="1045" y="1422" type="line"/>
      <point x="372" y="1422" type="line"/>
      <point x="372" y="870" type="line"/>
      <point x="1007" y="870" type="line"/>
      <point x="1007" y="732" type="line"/>
      <point x="372" y="732" type="line"/>
      <point x="372" y="138" type="line"/>
      <point x="1095" y="138" type="line"/>
      <point x="1095" y="0" type="line"/>
    </contour>
  </outline>
</glyph>
<glyph name="G" format="1">
  <advance width="1507"/>
  <unicode hex="0047"/>
  <outline>
    <contour>
      <point x="126" y="752" type="curve" smooth="yes"/>
      <point x="126" y="1298.31"/>
      <point x="455.31" y="1586.6"/>
      <point x="847.35" y="1586.6" type="curve" smooth="yes"/>
      <point x="992.803" y="1586.6"/>
      <point x="1146.89" y="1546.91"/>
      <point x="1296" y="1466" type="curve"/>
      <point x="1228" y="1327" type="line"/>
      <point x="1099.1" y="1394.94"/>
      <point x="973.151" y="1436.4"/>
      <point x="857.871" y="1436.4" type="curve" smooth="yes"/>
      <point x="543.875" y="1436.4"/>
      <point x="309" y="1186.58"/>
      <point x="309" y="766" type="curve" smooth="yes"/>
      <point x="309" y="370"/>
      <point x="494" y="126"/>
      <point x="850" y="126" type="curve" smooth="yes"/>
      <point x="966" y="126"/>
      <point x="1078" y="139"/>
      <point x="1164" y="178" type="curve"/>
      <point x="1164" y="653" type="line"/>
      <point x="752" y="653" type="line"/>
      <point x="752" y="812" type="line"/>
      <point x="1327" y="812" type="line"/>
      <point x="1327" y="88" type="line"/>
      <point x="1182" y="15"/>
      <point x="1028" y="-24"/>
      <point x="837" y="-24" type="curve" smooth="yes"/>
      <point x="391" y="-24"/>
      <point x="126" y="258"/>
    </contour>
  </outline>
</glyph>
<glyph name="H" format="1">
  <advance width="1510"/>
  <unicode hex="0048"/>
  <outline>
    <contour>
      <point x="198" y="0" type="line"/>
      <point x="198" y="1560" type="line"/>
      <point x="372" y="1560" type="line"/>
      <point x="372" y="889" type="line"/>
      <point x="1138" y="889" type="line"/>
      <point x="1138" y="1560" type="line"/>
      <point x="1312" y="1560" type="line"/>
      <point x="1312" y="0" type="line"/>
      <point x="1138" y="0" type="line"/>
      <point x="1138" y="741" type="line"/>
      <point x="372" y="741" type="line"/>
      <point x="372" y="0" type="line"/>
    </contour>
  </outline>
</glyph>
<glyph name="I" format="1">
  <advance width="902"/>
  <unicode hex="0049"/>
  <outline>
    <contour>
      <point x="746" y="0" type="line"/>
      <point x="156" y="0" type="line"/>
      <point x="156" y="124" type="line"/>
      <point x="364" y="124" type="line"/>
      <point x="364" y="1436" type="line"/>
      <point x="156" y="1436" type="line"/>
      <point x="156" y="1560" type="line"/>
      <point x="746" y="1560" type="line"/>
      <point x="746" y="1436" type="line"/>
      <point x="538" y="1436" type="line"/>
      <point x="538" y="124" type="line"/>
      <point x="746" y="124" type="line"/>
    </contour>
  </outline>
</glyph>
<glyph name="K" format="1">
  <advance width="1258"/>
  <unicode hex="004B"/>
  <outline>
    <contour>
      <point x="198" y="0" type="line"/>
      <point x="198" y="1560" type="line"/>
      <point x="372" y="1560" type="line"/>
      <point x="372" y="850" type="line"/>
      <point x="988" y="1560" type="line"/>
      <point x="1199" y="1560" type="line"/>
      <point x="548" y="818" type="line"/>
      <point x="1239" y="0" type="line"/>
      <point x="1021" y="0" type="line"/>
      <point x="372" y="779" type="line"/>
      <point x="372" y="0" type="line"/>
    </contour>
  </outline>
</glyph>
<glyph name="M" format="1">
  <advance width="1942"/>
  <unicode hex="004D"/>
  <outline>
    <contour>
      <point x="198" y="0" type="line"/>
      <point x="198" y="1560" type="line"/>
      <point x="424" y="1560" type="line"/>
      <point x="606.527" y="1179.86"/>
      <point x="790.9" y="801.567"/>
      <point x="972" y="420" type="curve"/>
      <point x="1152.46" y="806.201"/>
      <point x="1345.93" y="1179.4"/>
      <point x="1532" y="1560" type="curve"/>
      <point x="1744" y="1560" type="line"/>
      <point x="1744" y="0" type="line"/>
      <point x="1579" y="0" type="line"/>
      <point x="1579" y="1333" type="line"/>
      <point x="1393.82" y="964.181"/>
      <point x="1213.25" y="590.754"/>
      <point x="1030" y="220" type="curve"/>
      <point x="909" y="220" type="line"/>
      <point x="435" y="1190" type="line"/>
      <point x="365" y="1350" type="line"/>
      <point x="365" y="0" type="line"/>
    </contour>
  </outline>
</glyph>
<glyph name="Q" format="1">
  <advance width="1646"/>
  <unicode hex="0051"/>
  <outline>
    <component base="O" xOffset="4"/>
    <contour>
      <point x="1211" y="-287" type="line"/>
      <point x="1339" y="-218" type="line"/>
      <point x="988" y="457" type="line"/>
      <point x="850" y="382" type="line"/>
    </contour>
  </outline>
</glyph>
<glyph name="U" format="1">
  <advance width="1462"/>
  <unicode hex="0055"/>
  <outline>
    <contour>
      <point x="742.774" y="-24" type="curve" smooth="yes"/>
      <point x="373.774" y="-24"/>
      <point x="174.775" y="157"/>
      <point x="174.775" y="541" type="curve" smooth="yes"/>
      <point x="174.775" y="1560" type="line"/>
      <point x="348.774" y="1560" type="line"/>
      <point x="348.774" y="546" type="line" smooth="yes"/>
      <point x="348.774" y="260"/>
      <point x="480.775" y="126"/>
      <point x="741.775" y="126" type="curve" smooth="yes"/>
      <point x="983.775" y="126"/>
      <point x="1114.77" y="279"/>
      <point x="1114.77" y="539" type="curve" smooth="yes"/>
      <point x="1114.77" y="1560" type="line"/>
      <point x="1287.77" y="1560" type="line"/>
      <point x="1287.77" y="551" type="line"/>
      <point x="1285.77" y="191"/>
      <point x="1090.77" y="-24"/>
    </contour>
  </outline>
</glyph>
<glyph name="X" format="1">
  <advance width="1360"/>
  <unicode hex="0058"/>
  <outline>
    <contour>
      <point x="1098.62" y="0" type="line"/>
      <point x="680.625" y="697" type="line"/>
      <point x="264.625" y="0" type="line"/>
      <point x="60.625" y="0" type="line"/>
      <point x="584.625" y="815" type="line"/>
      <point x="99.625" y="1560" type="line"/>
      <point x="305.625" y="1560" type="line"/>
      <point x="693.625" y="928" type="line"/>
      <point x="1093.62" y="1560" type="line"/>
      <point x="1289.62" y="1560" type="line"/>
      <point x="791.625" y="816" type="line"/>
      <point x="1299.62" y="0" type="line"/>
    </contour>
  </outline>
</glyph>
<glyph name="b" format="1">
  <advance width="1173"/>
  <unicode hex="0062"/>
  <outline>
    <contour>
      <point x="573" y="115" type="curve" smooth="yes"/>
      <point x="825" y="150"/>
      <point x="903" y="318"/>
      <point x="903" y="550" type="curve" smooth="yes"/>
      <point x="903" y="793"/>
      <point x="795" y="920"/>
      <point x="653" y="920" type="curve" smooth="yes"/>
      <point x="500" y="920"/>
      <point x="338" y="791"/>
      <point x="338" y="601" type="curve" smooth="yes"/>
      <point x="338" y="133" type="line"/>
      <point x="338" y="133"/>
      <point x="477" y="102"/>
    </contour>
    <contour>
      <point x="569" y="-10" type="curve" smooth="yes"/>
      <point x="336" y="-10"/>
      <point x="168" y="41"/>
      <point x="168" y="41" type="curve"/>
      <point x="168" y="1560" type="line"/>
      <point x="338" y="1560" type="line"/>
      <point x="338" y="868" type="line"/>
      <point x="430" y="1002"/>
      <point x="541" y="1052"/>
      <point x="676" y="1052" type="curve" smooth="yes"/>
      <point x="899" y="1052"/>
      <point x="1077" y="865"/>
      <point x="1077" y="545" type="curve" smooth="yes"/>
      <point x="1077" y="215"/>
      <point x="873" y="-10"/>
    </contour>
  </outline>
</glyph>
<glyph name="c" format="1">
  <advance width="940"/>
  <unicode hex="0063"/>
  <outline>
    <contour>
      <point x="855" y="71" type="line"/>
      <point x="539" y="-135"/>
      <point x="84" y="-1"/>
      <point x="96" y="492" type="curve" smooth="yes"/>
      <point x="108" y="993"/>
      <point x="501" y="1153"/>
      <point x="844" y="992" type="curve"/>
      <point x="811" y="868" type="line"/>
      <point x="560" y="993"/>
      <point x="279" y="900"/>
      <point x="271" y="497" type="curve"/>
      <point x="261" y="91"/>
      <point x="573" y="35"/>
      <point x="825" y="189" type="curve"/>
    </contour>
  </outline>
</glyph>
<glyph name="e" format="1">
  <advance width="1022"/>
  <unicode hex="0065"/>
  <outline>
    <contour>
      <point x="274" y="519" type="curve"/>
      <point x="571" y="519"/>
      <point x="759" y="596"/>
      <point x="759" y="757" type="curve" smooth="yes"/>
      <point x="759" y="851"/>
      <point x="701" y="923"/>
      <point x="586" y="920" type="curve" smooth="yes"/>
      <point x="425" y="916"/>
      <point x="287" y="758"/>
    </contour>
    <contour>
      <point x="96" y="469" type="curve" smooth="yes"/>
      <point x="96" y="767"/>
      <point x="296" y="1052"/>
      <point x="603" y="1052" type="curve" smooth="yes"/>
      <point x="803" y="1052"/>
      <point x="913" y="922"/>
      <point x="913" y="755" type="curve" smooth="yes"/>
      <point x="913" y="510"/>
      <point x="685" y="398"/>
      <point x="275" y="398" type="curve"/>
      <point x="318" y="-35"/>
      <point x="752" y="124"/>
      <point x="881" y="213" type="curve"/>
      <point x="927" y="97" type="line"/>
      <point x="585" y="-126"/>
      <point x="96" y="-53"/>
    </contour>
  </outline>
</glyph>
<glyph name="f" format="1">
  <advance width="681"/>
  <unicode hex="0066"/>
  <outline>
    <contour>
      <point x="31" y="920" type="line"/>
      <point x="31" y="1026" type="line"/>
      <point x="663" y="1026" type="line"/>
      <point x="663" y="920" type="line"/>
    </contour>
    <contour>
      <point x="404" y="0" type="line"/>
      <point x="234" y="0" type="line"/>
      <point x="234" y="1147" type="line" smooth="yes"/>
      <point x="234" y="1379"/>
      <point x="314" y="1560"/>
      <point x="689" y="1560" type="curve" smooth="yes"/>
      <point x="711" y="1560" type="line"/>
      <point x="728" y="1424" type="line"/>
      <point x="706" y="1424" type="line" smooth="yes"/>
      <point x="452" y="1424"/>
      <point x="404" y="1335"/>
      <point x="404" y="1159" type="curve" smooth="yes"/>
    </contour>
  </outline>
</glyph>
<glyph name="g" format="1">
  <advance width="1136"/>
  <unicode hex="0067"/>
  <outline>
    <contour>
      <point x="272" y="439" type="curve" smooth="yes"/>
      <point x="272" y="737"/>
      <point x="439" y="920"/>
      <point x="661" y="920" type="curve" smooth="yes"/>
      <point x="733" y="920"/>
      <point x="770" y="907"/>
      <point x="810" y="894" type="curve"/>
      <point x="810" y="453" type="line" smooth="yes"/>
      <point x="810" y="260"/>
      <point x="706" y="110"/>
      <point x="521" y="110" type="curve" smooth="yes"/>
      <point x="368" y="110"/>
      <point x="272" y="239"/>
    </contour>
    <contour>
      <point x="470" y="-562" type="curve" smooth="yes"/>
      <point x="817" y="-562"/>
      <point x="980" y="-309"/>
      <point x="980" y="9" type="curve" smooth="yes"/>
      <point x="980" y="976" type="line"/>
      <point x="902" y="1017"/>
      <point x="790" y="1052"/>
      <point x="663" y="1052" type="curve" smooth="yes"/>
      <point x="338" y="1052"/>
      <point x="96" y="804"/>
      <point x="96" y="438" type="curve" smooth="yes"/>
      <point x="96" y="162"/>
      <point x="262" y="-22"/>
      <point x="497" y="-22" type="curve" smooth="yes"/>
      <point x="630" y="-22"/>
      <point x="741" y="34"/>
      <point x="810" y="126" type="curve"/>
      <point x="810" y="-12" type="line" smooth="yes"/>
      <point x="810" y="-272"/>
      <point x="695" y="-420"/>
      <point x="462" y="-420" type="curve" smooth="yes"/>
      <point x="383" y="-420"/>
      <point x="293" y="-407"/>
      <point x="188" y="-370" type="curve"/>
      <point x="170" y="-513" type="line"/>
      <point x="283" y="-549"/>
      <point x="382" y="-562"/>
    </contour>
  </outline>
</glyph>
<glyph name="h" format="1">
  <advance width="1225"/>
  <unicode hex="0068"/>
  <outline>
    <contour>
      <point x="1170" y="118" type="curve"/>
      <point x="1150" y="-14" type="line"/>
      <point x="911" y="-14"/>
      <point x="840" y="111"/>
      <point x="847" y="338" type="curve"/>
      <point x="847" y="607" type="line"/>
      <point x="854" y="828"/>
      <point x="795" y="918"/>
      <point x="663" y="920" type="curve" smooth="yes"/>
      <point x="475" y="923"/>
      <point x="339" y="773"/>
      <point x="339" y="552" type="curve"/>
      <point x="251" y="690" type="line"/>
      <point x="328" y="939"/>
      <point x="466" y="1051"/>
      <point x="681" y="1052" type="curve" smooth="yes"/>
      <point x="870" y="1053"/>
      <point x="1017" y="948"/>
      <point x="1017" y="625" type="curve" smooth="yes"/>
      <point x="1017" y="345" type="line" smooth="yes"/>
      <point x="1017" y="204"/>
      <point x="1030" y="130"/>
    </contour>
    <contour>
      <point x="338" y="0" type="line"/>
      <point x="168" y="0" type="line"/>
      <point x="168" y="1560" type="line"/>
      <point x="338" y="1560" type="line"/>
    </contour>
  </outline>
</glyph>
<glyph name="i" format="1">
  <advance width="609"/>
  <unicode hex="0069"/>
  <outline>
    <contour>
      <point x="548" y="-10" type="line"/>
      <point x="202" y="-40"/>
      <point x="188" y="128"/>
      <point x="188" y="326" type="curve" smooth="yes"/>
      <point x="188" y="1026" type="line"/>
      <point x="358" y="1026" type="line"/>
      <point x="358" y="320" type="line" smooth="yes"/>
      <point x="358" y="185"/>
      <point x="346" y="112"/>
      <point x="576" y="124" type="curve"/>
    </contour>
    <contour>
      <point x="281" y="1236" type="line" smooth="yes"/>
      <point x="221" y="1236"/>
      <point x="161" y="1274"/>
      <point x="161" y="1347" type="curve" smooth="yes"/>
      <point x="161" y="1421"/>
      <point x="221" y="1458"/>
      <point x="281" y="1458" type="curve" smooth="yes"/>
      <point x="282" y="1458" type="line" smooth="yes"/>
      <point x="340" y="1458"/>
      <point x="399" y="1420"/>
      <point x="399" y="1346" type="curve" smooth="yes"/>
      <point x="399" y="1273"/>
      <point x="341" y="1236"/>
      <point x="282" y="1236" type="curve" smooth="yes"/>
    </contour>
  </outline>
</glyph>
<glyph name="j" format="1">
  <advance width="557"/>
  <unicode hex="006A"/>
  <outline>
    <contour>
      <point x="112" y="-464" type="curve" smooth="yes"/>
      <point x="55" y="-464"/>
      <point x="-6" y="-452"/>
      <point x="-39" y="-443" type="curve"/>
      <point x="-24" y="-311" type="line"/>
      <point x="-24" y="-311"/>
      <point x="31" y="-329"/>
      <point x="89" y="-329" type="curve" smooth="yes"/>
      <point x="200" y="-329"/>
      <point x="222" y="-269"/>
      <point x="222" y="-76" type="curve" smooth="yes"/>
      <point x="222" y="1026" type="line"/>
      <point x="392" y="1026" type="line"/>
      <point x="392" y="-84" type="line" smooth="yes"/>
      <point x="392" y="-360"/>
      <point x="313" y="-464"/>
    </contour>
    <contour>
      <point x="311" y="1236" type="line" smooth="yes"/>
      <point x="251" y="1236"/>
      <point x="191" y="1274"/>
      <point x="191" y="1347" type="curve" smooth="yes"/>
      <point x="191" y="1421"/>
      <point x="251" y="1458"/>
      <point x="311" y="1458" type="curve" smooth="yes"/>
      <point x="312" y="1458" type="line" smooth="yes"/>
      <point x="370" y="1458"/>
      <point x="429" y="1420"/>
      <point x="429" y="1346" type="curve" smooth="yes"/>
      <point x="429" y="1273"/>
      <point x="371" y="1236"/>
      <point x="312" y="1236" type="curve" smooth="yes"/>
    </contour>
  </outline>
</glyph>
<glyph name="l" format="1">
  <advance width="617"/>
  <unicode hex="006C"/>
  <outline>
    <contour>
      <point x="558" y="-10" type="line"/>
      <point x="192" y="-40"/>
      <point x="168" y="128"/>
      <point x="168" y="326" type="curve" smooth="yes"/>
      <point x="168" y="1560" type="line"/>
      <point x="338" y="1560" type="line"/>
      <point x="338" y="320" type="line" smooth="yes"/>
      <point x="338" y="185"/>
      <point x="340" y="110"/>
      <point x="585" y="124" type="curve"/>
    </contour>
  </outline>
</glyph>
<glyph name="m" format="1">
  <advance width="1868"/>
  <unicode hex="006D"/>
  <outline>
    <contour>
      <point x="351" y="0" type="line"/>
      <point x="181" y="0" type="line"/>
      <point x="181" y="634" type="line" smooth="yes"/>
      <point x="181" y="833"/>
      <point x="138" y="1026"/>
      <point x="138" y="1026" type="curve"/>
      <point x="309" y="1026" type="line"/>
      <point x="309" y="1026"/>
      <point x="351" y="886"/>
      <point x="351" y="667" type="curve" smooth="yes"/>
    </contour>
    <contour>
      <point x="1813" y="121" type="curve"/>
      <point x="1787" y="-14" type="line"/>
      <point x="1563" y="-12"/>
      <point x="1483" y="87"/>
      <point x="1483" y="313" type="curve" smooth="yes"/>
      <point x="1483" y="600" type="line" smooth="yes"/>
      <point x="1483" y="846"/>
      <point x="1431" y="917"/>
      <point x="1291" y="920" type="curve" smooth="yes"/>
      <point x="1148" y="923"/>
      <point x="1011" y="792"/>
      <point x="1011" y="542" type="curve" smooth="yes"/>
      <point x="1011" y="0" type="line"/>
      <point x="840" y="2" type="line"/>
      <point x="840" y="607" type="line" smooth="yes"/>
      <point x="840" y="840"/>
      <point x="782" y="920"/>
      <point x="657" y="920" type="curve" smooth="yes"/>
      <point x="528" y="920"/>
      <point x="351" y="796"/>
      <point x="351" y="555" type="curve"/>
      <point x="259" y="689" type="line"/>
      <point x="352" y="954"/>
      <point x="505" y="1052"/>
      <point x="684" y="1052" type="curve" smooth="yes"/>
      <point x="806.06" y="1052"/>
      <point x="912.311" y="1002.71"/>
      <point x="967.56" y="869.573" type="curve"/>
      <point x="1044.53" y="988.034"/>
      <point x="1155.33" y="1052"/>
      <point x="1320" y="1052" type="curve" smooth="yes"/>
      <point x="1501" y="1052"/>
      <point x="1653" y="946"/>
      <point x="1653" y="625" type="curve" smooth="yes"/>
      <point x="1653" y="308" type="line" smooth="yes"/>
      <point x="1653" y="178"/>
      <point x="1710" y="122"/>
    </contour>
  </outline>
</glyph>
<glyph name="p" format="1">
  <advance width="1178"/>
  <unicode hex="0070"/>
  <outline>
    <contour>
      <point x="349" y="-574" type="line"/>
      <point x="179" y="-574" type="line"/>
      <point x="179" y="634" type="line" smooth="yes"/>
      <point x="179" y="833"/>
      <point x="136" y="1026"/>
      <point x="136" y="1026" type="curve"/>
      <point x="307" y="1026" type="line"/>
      <point x="307" y="1026"/>
      <point x="349" y="906"/>
      <point x="349" y="667" type="curve" smooth="yes"/>
    </contour>
    <contour>
      <point x="267" y="680" type="line"/>
      <point x="300" y="881"/>
      <point x="392" y="1052"/>
      <point x="672" y="1052" type="curve" smooth="yes"/>
      <point x="929" y="1052"/>
      <point x="1082" y="853"/>
      <point x="1082" y="543" type="curve" smooth="yes"/>
      <point x="1082" y="186"/>
      <point x="880" y="-22"/>
      <point x="590" y="-22" type="curve" smooth="yes"/>
      <point x="452" y="-22"/>
      <point x="332" y="24"/>
      <point x="264" y="55" type="curve"/>
      <point x="264" y="197" type="line"/>
      <point x="340" y="163"/>
      <point x="442" y="110"/>
      <point x="564" y="110" type="curve" smooth="yes"/>
      <point x="757" y="110"/>
      <point x="908" y="239"/>
      <point x="908" y="541" type="curve" smooth="yes"/>
      <point x="908" y="785"/>
      <point x="815" y="920"/>
      <point x="637" y="920" type="curve" smooth="yes"/>
      <point x="434" y="920"/>
      <point x="349" y="721"/>
      <point x="349" y="500" type="curve"/>
    </contour>
  </outline>
</glyph>
<glyph name="q" format="1">
  <advance width="1157"/>
  <unicode hex="0071"/>
  <outline>
    <contour>
      <point x="917" y="-555" type="curve" smooth="yes"/>
      <point x="936" y="-555"/>
      <point x="954" y="-551"/>
      <point x="970" y="-544" type="curve" smooth="yes"/>
      <point x="1287" y="-405" type="line"/>
      <point x="1241" y="-285" type="line"/>
      <point x="980" y="-394" type="line"/>
      <point x="980" y="976" type="line"/>
      <point x="902" y="1017"/>
      <point x="790" y="1052"/>
      <point x="663" y="1052" type="curve" smooth="yes"/>
      <point x="338" y="1052"/>
      <point x="96" y="804"/>
      <point x="96" y="438" type="curve" smooth="yes"/>
      <point x="96" y="162"/>
      <point x="262" y="-22"/>
      <point x="497" y="-22" type="curve" smooth="yes"/>
      <point x="630" y="-22"/>
      <point x="741" y="34"/>
      <point x="810" y="126" type="curve"/>
      <point x="810" y="-441" type="line" smooth="yes"/>
      <point x="810" y="-526"/>
      <point x="867" y="-555"/>
    </contour>
    <contour>
      <point x="272" y="439" type="curve" smooth="yes"/>
      <point x="272" y="737"/>
      <point x="439" y="920"/>
      <point x="661" y="920" type="curve" smooth="yes"/>
      <point x="733" y="920"/>
      <point x="770" y="907"/>
      <point x="810" y="894" type="curve"/>
      <point x="810" y="453" type="line" smooth="yes"/>
      <point x="810" y="260"/>
      <point x="706" y="110"/>
      <point x="521" y="110" type="curve" smooth="yes"/>
      <point x="368" y="110"/>
      <point x="272" y="239"/>
    </contour>
  </outline>
</glyph>
<glyph name="r" format="1">
  <advance width="770"/>
  <unicode hex="0072"/>
  <outline>
    <contour>
      <point x="351" y="0" type="line"/>
      <point x="181" y="0" type="line"/>
      <point x="181" y="634" type="line" smooth="yes"/>
      <point x="181" y="833"/>
      <point x="138" y="1026"/>
      <point x="138" y="1026" type="curve"/>
      <point x="309" y="1026" type="line"/>
      <point x="309" y="1026"/>
      <point x="351" y="906"/>
      <point x="351" y="667" type="curve" smooth="yes"/>
    </contour>
    <contour>
      <point x="311" y="829" type="line"/>
      <point x="345.914" y="936.178"/>
      <point x="436.207" y="1047.31"/>
      <point x="609.715" y="1047.31" type="curve" smooth="yes"/>
      <point x="649.897" y="1047.31"/>
      <point x="694.544" y="1041.35"/>
      <point x="744" y="1028" type="curve"/>
      <point x="730" y="883" type="line"/>
      <point x="686.288" y="897.62"/>
      <point x="647.135" y="904.345"/>
      <point x="612.146" y="904.345" type="curve" smooth="yes"/>
      <point x="410.202" y="904.345"/>
      <point x="351" y="680"/>
      <point x="351" y="457" type="curve"/>
    </contour>
  </outline>
</glyph>
<glyph name="t" format="1">
  <advance width="755"/>
  <unicode hex="0074"/>
  <outline>
    <contour>
      <point x="672" y="-10" type="line"/>
      <point x="286" y="-40"/>
      <point x="240" y="128"/>
      <point x="240" y="326" type="curve" smooth="yes"/>
      <point x="240" y="1382" type="line"/>
      <point x="410" y="1382" type="line"/>
      <point x="410" y="320" type="line" smooth="yes"/>
      <point x="410" y="185"/>
      <point x="425" y="112"/>
      <point x="699" y="124" type="curve"/>
    </contour>
    <contour>
      <point x="41" y="920" type="line"/>
      <point x="41" y="1026" type="line"/>
      <point x="687" y="1026" type="line"/>
      <point x="687" y="920" type="line"/>
    </contour>
  </outline>
</glyph>
<glyph name="x" format="1">
  <advance width="990"/>
  <unicode hex="0078"/>
  <outline>
    <contour>
      <point x="14" y="0" type="line"/>
      <point x="406" y="514" type="line"/>
      <point x="33" y="1026" type="line"/>
      <point x="235" y="1026" type="line"/>
      <point x="507" y="638" type="line"/>
      <point x="784" y="1026" type="line"/>
      <point x="963" y="1026" type="line"/>
      <point x="593" y="518" type="line"/>
      <point x="976" y="0" type="line"/>
      <point x="775" y="0" type="line"/>
      <point x="496" y="396" type="line"/>
      <point x="204" y="0" type="line"/>
    </contour>
  </outline>
</glyph>
<glyph name="brokenbar" format="1">
  <advance width="557"/>
  <unicode hex="00A6"/>
  <outline>
    <contour>
      <point x="200" y="677" type="line"/>
      <point x="200" y="1545" type="line"/>
      <point x="357" y="1545" type="line"/>
      <point x="357" y="677" type="line"/>
    </contour>
    <contour>
      <point x="200" y="-491" type="line"/>
      <point x="200" y="393" type="line"/>
      <point x="357" y="393" type="line"/>
      <point x="357" y="-491" type="line"/>
    </contour>
  </outline>
</glyph>
<glyph name="ordmasculine" format="1">
  <advance width="1094"/>
  <unicode hex="00BA"/>
  <outline>
    <contour>
      <point x="549" y="879" type="curve" smooth="yes"/>
      <point x="686" y="879"/>
      <point x="765" y="983"/>
      <point x="765" y="1123" type="curve" smooth="yes"/>
      <point x="765" y="1268"/>
      <point x="686" y="1373"/>
      <point x="546" y="1373" type="curve" smooth="yes"/>
      <point x="409" y="1373"/>
      <point x="331" y="1268"/>
      <point x="331" y="1127" type="curve" smooth="yes"/>
      <point x="331" y="981"/>
      <point x="407" y="879"/>
    </contour>
    <contour>
      <point x="549" y="771" type="curve" smooth="yes"/>
      <point x="329" y="771"/>
      <point x="191" y="905"/>
      <point x="191" y="1128" type="curve" smooth="yes"/>
      <point x="191" y="1357"/>
      <point x="341" y="1480"/>
      <point x="548" y="1480" type="curve" smooth="yes"/>
      <point x="775" y="1480"/>
      <point x="903" y="1326"/>
      <point x="903" y="1125" type="curve" smooth="yes"/>
      <point x="903" y="896"/>
      <point x="757" y="771"/>
    </contour>
  </outline>
</glyph>
<glyph name="threequarters" format="1">
  <advance width="2060"/>
  <unicode hex="00BE"/>
  <outline>
    <contour>
      <point x="347" y="411" type="curve" smooth="yes"/>
      <point x="213" y="411"/>
      <point x="118" y="478"/>
      <point x="110" y="483" type="curve"/>
      <point x="148" y="596" type="line"/>
      <point x="174" y="579"/>
      <point x="247" y="529"/>
      <point x="340" y="529" type="curve" smooth="yes"/>
      <point x="451" y="529"/>
      <point x="540" y="599"/>
      <point x="540" y="718" type="curve" smooth="yes"/>
      <point x="540" y="855.824"/>
      <point x="462.331" y="914.013"/>
      <point x="321.616" y="914.013" type="curve" smooth="yes"/>
      <point x="320.415" y="914.013"/>
      <point x="319.21" y="914.008"/>
      <point x="318" y="914" type="curve" smooth="yes"/>
      <point x="263" y="914" type="line"/>
      <point x="263" y="1028" type="line"/>
      <point x="311" y="1028" type="line" smooth="yes"/>
      <point x="444.108" y="1028"/>
      <point x="519.444" y="1090.36"/>
      <point x="519.444" y="1199.27" type="curve" smooth="yes"/>
      <point x="519.444" y="1204.09"/>
      <point x="519.297" y="1209"/>
      <point x="519" y="1214" type="curve" smooth="yes"/>
      <point x="515" y="1304"/>
      <point x="436" y="1364"/>
      <point x="348" y="1364" type="curve" smooth="yes"/>
      <point x="249" y="1364"/>
      <point x="176" y="1320"/>
      <point x="136" y="1277" type="curve"/>
      <point x="82" y="1370" type="line"/>
      <point x="140" y="1440"/>
      <point x="243" y="1482"/>
      <point x="361" y="1482" type="curve" smooth="yes"/>
      <point x="497" y="1482"/>
      <point x="642" y="1398"/>
      <point x="648" y="1224" type="curve" smooth="yes"/>
      <point x="648.134" y="1219.92"/>
      <point x="648.2" y="1215.86"/>
      <point x="648.2" y="1211.84" type="curve" smooth="yes"/>
      <point x="648.2" y="1095.52"/>
      <point x="592.554" y="1002.93"/>
      <point x="493" y="972" type="curve"/>
      <point x="606.99" y="944.763"/>
      <point x="670.018" y="847.592"/>
      <point x="670.018" y="711.373" type="curve" smooth="yes"/>
      <point x="670.018" y="516.687"/>
      <point x="509.991" y="411"/>
    </contour>
    <contour>
      <point x="1785" y="617" type="line"/>
      <point x="1785" y="363" type="line"/>
      <point x="1974" y="363" type="line"/>
      <point x="1974" y="264" type="line"/>
      <point x="1786" y="264" type="line"/>
      <point x="1786" y="0" type="line"/>
      <point x="1654" y="0" type="line"/>
      <point x="1654" y="264" type="line"/>
      <point x="1215" y="264" type="line"/>
      <point x="1215" y="355" type="line"/>
      <point x="1576" y="1026" type="line"/>
      <point x="1713" y="1026" type="line"/>
      <point x="1376" y="363" type="line"/>
      <point x="1654" y="363" type="line"/>
      <point x="1654" y="617" type="line"/>
    </contour>
    <contour>
      <point x="543" y="0" type="line"/>
      <point x="1376" y="1456" type="line"/>
      <point x="1525" y="1456" type="line"/>
      <point x="694" y="0" type="line"/>
    </contour>
  </outline>
</glyph>
<glyph name="ae" format="1">
  <advance width="1716"/>
  <unicode hex="00E6"/>
  <outline>
    <contour>
      <point x="919" y="566" type="curve"/>
      <point x="1152" y="566"/>
      <point x="1428" y="597"/>
      <point x="1428" y="758" type="curve" smooth="yes"/>
      <point x="1428" y="852"/>
      <point x="1363" y="916"/>
      <point x="1248" y="916" type="curve" smooth="yes"/>
      <point x="1082" y="916"/>
      <point x="933" y="794"/>
    </contour>
    <contour>
      <point x="474" y="114" type="curve" smooth="yes"/>
      <point x="694" y="114"/>
      <point x="775" y="276"/>
      <point x="775" y="493" type="curve"/>
      <point x="637" y="490" type="line" smooth="yes"/>
      <point x="452" y="485"/>
      <point x="260" y="465"/>
      <point x="260" y="294" type="curve" smooth="yes"/>
      <point x="260" y="167"/>
      <point x="347" y="114"/>
    </contour>
    <contour>
      <point x="451" y="-22" type="curve" smooth="yes"/>
      <point x="232" y="-22"/>
      <point x="91" y="96"/>
      <point x="91" y="286" type="curve" smooth="yes"/>
      <point x="91" y="603.422"/>
      <point x="420.523" y="609.007"/>
      <point x="738.292" y="609.007" type="curve" smooth="yes"/>
      <point x="749.883" y="609.007"/>
      <point x="761.457" y="609"/>
      <point x="773" y="609" type="curve"/>
      <point x="773" y="632" type="line" smooth="yes"/>
      <point x="773" y="831"/>
      <point x="667" y="916"/>
      <point x="531" y="916" type="curve" smooth="yes"/>
      <point x="422" y="916"/>
      <point x="309" y="898"/>
      <point x="198" y="798" type="curve"/>
      <point x="130" y="908" type="line"/>
      <point x="273" y="1021"/>
      <point x="394" y="1052"/>
      <point x="541" y="1052" type="curve" smooth="yes"/>
      <point x="692.067" y="1052"/>
      <point x="819.945" y="975.808"/>
      <point x="873.384" y="849.049" type="curve"/>
      <point x="945.559" y="972.27"/>
      <point x="1067.62" y="1052"/>
      <point x="1247" y="1052" type="curve" smooth="yes"/>
      <point x="1454" y="1052"/>
      <point x="1591" y="922"/>
      <point x="1591" y="755" type="curve" smooth="yes"/>
      <point x="1591" y="510"/>
      <point x="1253" y="445"/>
      <point x="921" y="445" type="curve"/>
      <point x="945" y="233"/>
      <point x="1073" y="114"/>
      <point x="1257" y="114" type="curve" smooth="yes"/>
      <point x="1408" y="114"/>
      <point x="1499" y="179"/>
      <point x="1564" y="232" type="curve"/>
      <point x="1632" y="122" type="line"/>
      <point x="1512" y="25"/>
      <point x="1402" y="-22"/>
      <point x="1246" y="-22" type="curve" smooth="yes"/>
      <point x="1066.25" y="-22"/>
      <point x="926.381" y="60.3711"/>
      <point x="851.805" y="212.839" type="curve"/>
      <point x="781.696" y="86.6114"/>
      <point x="659.434" y="-22"/>
    </contour>
  </outline>
</glyph>
<glyph name="oslash" format="1">
  <advance width="1216"/>
  <unicode hex="00F8"/>
  <outline>
    <component base="o"/>
    <contour>
      <point x="353" y="-261" type="line"/>
      <point x="257" y="-229" type="line"/>
      <point x="869" y="1277" type="line"/>
      <point x="969" y="1245" type="line"/>
    </contour>
  </outline>
</glyph>
<glyph name="quoteright" format="1">
  <advance width="571"/>
  <unicode hex="2019"/>
  <outline>
    <contour>
      <point x="145" y="1016" type="line"/>
      <point x="250" y="1456" type="line"/>
      <point x="431" y="1456" type="line"/>
      <point x="277" y="1016" type="line"/>
    </contour>
  </outline>
</glyph>
<glyph name="Euro" format="1">
  <advance width="1394"/>
  <unicode hex="20AC"/>
  <outline>
    <component base="C" xOffset="25"/>
    <contour>
      <point x="850" y="516" type="line"/>
      <point x="13" y="516" type="line"/>
      <point x="33" y="644" type="line"/>
      <point x="222" y="644" type="line"/>
      <point x="222" y="794" type="line"/>
      <point x="10" y="794" type="line"/>
      <point x="32" y="922" type="line"/>
      <point x="903" y="922" type="line"/>
      <point x="883" y="794" type="line"/>
      <point x="313" y="794" type="line"/>
      <point x="313" y="644" type="line"/>
      <point x="869" y="644" type="line"/>
    </contour>
  </outline>
</glyph>
<glyph name="uni2611" format="1">
  <advance width="1629"/>
  <unicode hex="2611"/>
  <outline>
    <contour>
      <point x="178" y="0" type="line"/>
      <point x="1451" y="0" type="line"/>
      <point x="1451" y="1307" type="line"/>
      <point x="178" y="1307" type="line"/>
    </contour>
    <contour>
      <point x="321" y="606" type="curve" smooth="yes"/>
      <point x="410" y="216" type="line"/>
      <point x="429" y="124"/>
      <point x="513" y="115"/>
      <point x="563" y="177" type="curve" smooth="yes"/>
      <point x="1285" y="1072" type="line" smooth="yes"/>
      <point x="1320" y="1115"/>
      <point x="1261" y="1182"/>
      <point x="1217" y="1133" type="curve" smooth="yes"/>
      <point x="528" y="371" type="line"/>
      <point x="436" y="631" type="line" smooth="yes"/>
      <point x="408" y="711"/>
      <point x="305" y="676"/>
    </contour>
    <contour>
      <point x="266" y="82" type="line"/>
      <point x="266" y="1225" type="line"/>
      <point x="1363" y="1225" type="line"/>
      <point x="1363" y="82" type="line"/>
    </contour>
  </outline>
</glyph>
<glyph name="uni2713" format="1">
  <advance width="1709"/>
  <unicode hex="2713"/>
  <outline>
    <contour>
      <point x="238.523" y="603" type="line" smooth="yes"/>
      <point x="217.523" y="692"/>
      <point x="333.523" y="738"/>
      <point x="367.523" y="634" type="curve" smooth="yes"/>
      <point x="486.523" y="267" type="line" smooth="yes"/>
      <point x="492.523" y="249"/>
      <point x="502.523" y="245"/>
      <point x="515.523" y="259" type="curve" smooth="yes"/>
      <point x="1507.52" y="1350" type="line" smooth="yes"/>
      <point x="1564.52" y="1414"/>
      <point x="1630.52" y="1350"/>
      <point x="1584.52" y="1293" type="curve" smooth="yes"/>
      <point x="565.523" y="44" type="line" smooth="yes"/>
      <point x="498.523" y="-38"/>
      <point x="384.523" y="-26"/>
      <point x="358.523" y="92" type="curve"/>
    </contour>
  </outline>
</glyph>
<glyph name="uni2714" format="1">
  <advance width="1781"/>
  <unicode hex="2714"/>
  <outline>
    <contour>
      <point x="297" y="617" type="line"/>
      <point x="272" y="733"/>
      <point x="450" y="793"/>
      <point x="491" y="667" type="curve"/>
      <point x="581" y="426" type="line" smooth="yes"/>
      <point x="621" y="320"/>
      <point x="621" y="314"/>
      <point x="712" y="415" type="curve" smooth="yes"/>
      <point x="1548" y="1336" type="line" smooth="yes"/>
      <point x="1608" y="1403"/>
      <point x="1694" y="1346"/>
      <point x="1638" y="1271" type="curve" smooth="yes"/>
      <point x="920" y="305" type="line" smooth="yes"/>
      <point x="723" y="41"/>
      <point x="688" y="-21"/>
      <point x="580" y="-21" type="curve" smooth="yes"/>
      <point x="494" y="-21"/>
      <point x="435" y="10"/>
      <point x="393" y="196" type="curve" smooth="yes"/>
    </contour>
  </outline>
</glyph>
